<?xml version="1.0" encoding="utf-8" standalone="no"?>
<!DOCTYPE svg PUBLIC "-//W3C//DTD SVG 1.1//EN"
  "http://www.w3.org/Graphics/SVG/1.1/DTD/svg11.dtd">
<svg xmlns:xlink="http://www.w3.org/1999/xlink" width="761.76pt" height="24.620625pt" viewBox="0 0 761.76 24.620625" xmlns="http://www.w3.org/2000/svg" version="1.1">
 <metadata>
  <rdf:RDF xmlns:dc="http://purl.org/dc/elements/1.1/" xmlns:cc="http://creativecommons.org/ns#" xmlns:rdf="http://www.w3.org/1999/02/22-rdf-syntax-ns#">
   <cc:Work>
    <dc:type rdf:resource="http://purl.org/dc/dcmitype/StillImage"/>
    <dc:format>image/svg+xml</dc:format>
    <dc:creator>
     <cc:Agent>
      <dc:title>Matplotlib v3.10.9, https://matplotlib.org/</dc:title>
     </cc:Agent>
    </dc:creator>
   </cc:Work>
  </rdf:RDF>
 </metadata>
 <defs>
  <style type="text/css">*{stroke-linejoin: round; stroke-linecap: butt}</style>
 </defs>
 <g id="figure_1">
  <g id="patch_1">
   <path d="M 0 24.620625 
L 761.76 24.620625 
L 761.76 0 
L 0 0 
L 0 24.620625 
z
" style="fill: none"/>
  </g>
  <g id="text_1">
   <!-- $S = 0.291509 + 0.445307 + 0.39711 + 0.464386 + 0.494132 + 0.423018 = 2.515462$ -->
   <g transform="translate(3.6 17.277187) scale(0.18 -0.18)">
    <defs>
     <path id="DejaVuSans-Oblique-53" d="M 3859 4513 
L 3738 3897 
Q 3422 4066 3111 4152 
Q 2800 4238 2509 4238 
Q 1944 4238 1609 3991 
Q 1275 3744 1275 3334 
Q 1275 3109 1398 2989 
Q 1522 2869 2034 2731 
L 2413 2638 
Q 3053 2472 3303 2217 
Q 3553 1963 3553 1503 
Q 3553 797 2998 353 
Q 2444 -91 1538 -91 
Q 1166 -91 791 -17 
Q 416 56 38 206 
L 166 856 
Q 513 641 861 531 
Q 1209 422 1556 422 
Q 2147 422 2503 684 
Q 2859 947 2859 1369 
Q 2859 1650 2717 1795 
Q 2575 1941 2106 2059 
L 1728 2156 
Q 1081 2325 845 2545 
Q 609 2766 609 3163 
Q 609 3859 1145 4304 
Q 1681 4750 2541 4750 
Q 2875 4750 3203 4690 
Q 3531 4631 3859 4513 
z
" transform="scale(0.015625)"/>
     <path id="DejaVuSans-3d" d="M 678 2906 
L 4684 2906 
L 4684 2381 
L 678 2381 
L 678 2906 
z
M 678 1631 
L 4684 1631 
L 4684 1100 
L 678 1100 
L 678 1631 
z
" transform="scale(0.015625)"/>
     <path id="DejaVuSans-30" d="M 2034 4250 
Q 1547 4250 1301 3770 
Q 1056 3291 1056 2328 
Q 1056 1369 1301 889 
Q 1547 409 2034 409 
Q 2525 409 2770 889 
Q 3016 1369 3016 2328 
Q 3016 3291 2770 3770 
Q 2525 4250 2034 4250 
z
M 2034 4750 
Q 2819 4750 3233 4129 
Q 3647 3509 3647 2328 
Q 3647 1150 3233 529 
Q 2819 -91 2034 -91 
Q 1250 -91 836 529 
Q 422 1150 422 2328 
Q 422 3509 836 4129 
Q 1250 4750 2034 4750 
z
" transform="scale(0.015625)"/>
     <path id="DejaVuSans-2e" d="M 684 794 
L 1344 794 
L 1344 0 
L 684 0 
L 684 794 
z
" transform="scale(0.015625)"/>
     <path id="DejaVuSans-32" d="M 1228 531 
L 3431 531 
L 3431 0 
L 469 0 
L 469 531 
Q 828 903 1448 1529 
Q 2069 2156 2228 2338 
Q 2531 2678 2651 2914 
Q 2772 3150 2772 3378 
Q 2772 3750 2511 3984 
Q 2250 4219 1831 4219 
Q 1534 4219 1204 4116 
Q 875 4013 500 3803 
L 500 4441 
Q 881 4594 1212 4672 
Q 1544 4750 1819 4750 
Q 2544 4750 2975 4387 
Q 3406 4025 3406 3419 
Q 3406 3131 3298 2873 
Q 3191 2616 2906 2266 
Q 2828 2175 2409 1742 
Q 1991 1309 1228 531 
z
" transform="scale(0.015625)"/>
     <path id="DejaVuSans-39" d="M 703 97 
L 703 672 
Q 941 559 1184 500 
Q 1428 441 1663 441 
Q 2288 441 2617 861 
Q 2947 1281 2994 2138 
Q 2813 1869 2534 1725 
Q 2256 1581 1919 1581 
Q 1219 1581 811 2004 
Q 403 2428 403 3163 
Q 403 3881 828 4315 
Q 1253 4750 1959 4750 
Q 2769 4750 3195 4129 
Q 3622 3509 3622 2328 
Q 3622 1225 3098 567 
Q 2575 -91 1691 -91 
Q 1453 -91 1209 -44 
Q 966 3 703 97 
z
M 1959 2075 
Q 2384 2075 2632 2365 
Q 2881 2656 2881 3163 
Q 2881 3666 2632 3958 
Q 2384 4250 1959 4250 
Q 1534 4250 1286 3958 
Q 1038 3666 1038 3163 
Q 1038 2656 1286 2365 
Q 1534 2075 1959 2075 
z
" transform="scale(0.015625)"/>
     <path id="DejaVuSans-31" d="M 794 531 
L 1825 531 
L 1825 4091 
L 703 3866 
L 703 4441 
L 1819 4666 
L 2450 4666 
L 2450 531 
L 3481 531 
L 3481 0 
L 794 0 
L 794 531 
z
" transform="scale(0.015625)"/>
     <path id="DejaVuSans-35" d="M 691 4666 
L 3169 4666 
L 3169 4134 
L 1269 4134 
L 1269 2991 
Q 1406 3038 1543 3061 
Q 1681 3084 1819 3084 
Q 2600 3084 3056 2656 
Q 3513 2228 3513 1497 
Q 3513 744 3044 326 
Q 2575 -91 1722 -91 
Q 1428 -91 1123 -41 
Q 819 9 494 109 
L 494 744 
Q 775 591 1075 516 
Q 1375 441 1709 441 
Q 2250 441 2565 725 
Q 2881 1009 2881 1497 
Q 2881 1984 2565 2268 
Q 2250 2553 1709 2553 
Q 1456 2553 1204 2497 
Q 953 2441 691 2322 
L 691 4666 
z
" transform="scale(0.015625)"/>
     <path id="DejaVuSans-2b" d="M 2944 4013 
L 2944 2272 
L 4684 2272 
L 4684 1741 
L 2944 1741 
L 2944 0 
L 2419 0 
L 2419 1741 
L 678 1741 
L 678 2272 
L 2419 2272 
L 2419 4013 
L 2944 4013 
z
" transform="scale(0.015625)"/>
     <path id="DejaVuSans-34" d="M 2419 4116 
L 825 1625 
L 2419 1625 
L 2419 4116 
z
M 2253 4666 
L 3047 4666 
L 3047 1625 
L 3713 1625 
L 3713 1100 
L 3047 1100 
L 3047 0 
L 2419 0 
L 2419 1100 
L 313 1100 
L 313 1709 
L 2253 4666 
z
" transform="scale(0.015625)"/>
     <path id="DejaVuSans-33" d="M 2597 2516 
Q 3050 2419 3304 2112 
Q 3559 1806 3559 1356 
Q 3559 666 3084 287 
Q 2609 -91 1734 -91 
Q 1441 -91 1130 -33 
Q 819 25 488 141 
L 488 750 
Q 750 597 1062 519 
Q 1375 441 1716 441 
Q 2309 441 2620 675 
Q 2931 909 2931 1356 
Q 2931 1769 2642 2001 
Q 2353 2234 1838 2234 
L 1294 2234 
L 1294 2753 
L 1863 2753 
Q 2328 2753 2575 2939 
Q 2822 3125 2822 3475 
Q 2822 3834 2567 4026 
Q 2313 4219 1838 4219 
Q 1578 4219 1281 4162 
Q 984 4106 628 3988 
L 628 4550 
Q 988 4650 1302 4700 
Q 1616 4750 1894 4750 
Q 2613 4750 3031 4423 
Q 3450 4097 3450 3541 
Q 3450 3153 3228 2886 
Q 3006 2619 2597 2516 
z
" transform="scale(0.015625)"/>
     <path id="DejaVuSans-37" d="M 525 4666 
L 3525 4666 
L 3525 4397 
L 1831 0 
L 1172 0 
L 2766 4134 
L 525 4134 
L 525 4666 
z
" transform="scale(0.015625)"/>
     <path id="DejaVuSans-36" d="M 2113 2584 
Q 1688 2584 1439 2293 
Q 1191 2003 1191 1497 
Q 1191 994 1439 701 
Q 1688 409 2113 409 
Q 2538 409 2786 701 
Q 3034 994 3034 1497 
Q 3034 2003 2786 2293 
Q 2538 2584 2113 2584 
z
M 3366 4563 
L 3366 3988 
Q 3128 4100 2886 4159 
Q 2644 4219 2406 4219 
Q 1781 4219 1451 3797 
Q 1122 3375 1075 2522 
Q 1259 2794 1537 2939 
Q 1816 3084 2150 3084 
Q 2853 3084 3261 2657 
Q 3669 2231 3669 1497 
Q 3669 778 3244 343 
Q 2819 -91 2113 -91 
Q 1303 -91 875 529 
Q 447 1150 447 2328 
Q 447 3434 972 4092 
Q 1497 4750 2381 4750 
Q 2619 4750 2861 4703 
Q 3103 4656 3366 4563 
z
" transform="scale(0.015625)"/>
     <path id="DejaVuSans-38" d="M 2034 2216 
Q 1584 2216 1326 1975 
Q 1069 1734 1069 1313 
Q 1069 891 1326 650 
Q 1584 409 2034 409 
Q 2484 409 2743 651 
Q 3003 894 3003 1313 
Q 3003 1734 2745 1975 
Q 2488 2216 2034 2216 
z
M 1403 2484 
Q 997 2584 770 2862 
Q 544 3141 544 3541 
Q 544 4100 942 4425 
Q 1341 4750 2034 4750 
Q 2731 4750 3128 4425 
Q 3525 4100 3525 3541 
Q 3525 3141 3298 2862 
Q 3072 2584 2669 2484 
Q 3125 2378 3379 2068 
Q 3634 1759 3634 1313 
Q 3634 634 3220 271 
Q 2806 -91 2034 -91 
Q 1263 -91 848 271 
Q 434 634 434 1313 
Q 434 1759 690 2068 
Q 947 2378 1403 2484 
z
M 1172 3481 
Q 1172 3119 1398 2916 
Q 1625 2713 2034 2713 
Q 2441 2713 2670 2916 
Q 2900 3119 2900 3481 
Q 2900 3844 2670 4047 
Q 2441 4250 2034 4250 
Q 1625 4250 1398 4047 
Q 1172 3844 1172 3481 
z
" transform="scale(0.015625)"/>
    </defs>
    <use xlink:href="#DejaVuSans-Oblique-53" transform="translate(0 0.78125)"/>
    <use xlink:href="#DejaVuSans-3d" transform="translate(82.958984 0.78125)"/>
    <use xlink:href="#DejaVuSans-30" transform="translate(186.230469 0.78125)"/>
    <use xlink:href="#DejaVuSans-2e" transform="translate(249.853516 0.78125)"/>
    <use xlink:href="#DejaVuSans-32" transform="translate(276.140625 0.78125)"/>
    <use xlink:href="#DejaVuSans-39" transform="translate(338.013672 0.78125)"/>
    <use xlink:href="#DejaVuSans-31" transform="translate(401.636719 0.78125)"/>
    <use xlink:href="#DejaVuSans-35" transform="translate(465.259766 0.78125)"/>
    <use xlink:href="#DejaVuSans-30" transform="translate(528.882812 0.78125)"/>
    <use xlink:href="#DejaVuSans-39" transform="translate(592.505859 0.78125)"/>
    <use xlink:href="#DejaVuSans-2b" transform="translate(675.611328 0.78125)"/>
    <use xlink:href="#DejaVuSans-30" transform="translate(778.882812 0.78125)"/>
    <use xlink:href="#DejaVuSans-2e" transform="translate(842.505859 0.78125)"/>
    <use xlink:href="#DejaVuSans-34" transform="translate(874.292969 0.78125)"/>
    <use xlink:href="#DejaVuSans-34" transform="translate(937.916016 0.78125)"/>
    <use xlink:href="#DejaVuSans-35" transform="translate(1001.539062 0.78125)"/>
    <use xlink:href="#DejaVuSans-33" transform="translate(1065.162109 0.78125)"/>
    <use xlink:href="#DejaVuSans-30" transform="translate(1128.785156 0.78125)"/>
    <use xlink:href="#DejaVuSans-37" transform="translate(1192.408203 0.78125)"/>
    <use xlink:href="#DejaVuSans-2b" transform="translate(1275.513672 0.78125)"/>
    <use xlink:href="#DejaVuSans-30" transform="translate(1378.785156 0.78125)"/>
    <use xlink:href="#DejaVuSans-2e" transform="translate(1442.408203 0.78125)"/>
    <use xlink:href="#DejaVuSans-33" transform="translate(1474.195312 0.78125)"/>
    <use xlink:href="#DejaVuSans-39" transform="translate(1537.818359 0.78125)"/>
    <use xlink:href="#DejaVuSans-37" transform="translate(1601.441406 0.78125)"/>
    <use xlink:href="#DejaVuSans-31" transform="translate(1665.064453 0.78125)"/>
    <use xlink:href="#DejaVuSans-31" transform="translate(1728.6875 0.78125)"/>
    <use xlink:href="#DejaVuSans-2b" transform="translate(1811.792969 0.78125)"/>
    <use xlink:href="#DejaVuSans-30" transform="translate(1915.064453 0.78125)"/>
    <use xlink:href="#DejaVuSans-2e" transform="translate(1978.6875 0.78125)"/>
    <use xlink:href="#DejaVuSans-34" transform="translate(2010.474609 0.78125)"/>
    <use xlink:href="#DejaVuSans-36" transform="translate(2074.097656 0.78125)"/>
    <use xlink:href="#DejaVuSans-34" transform="translate(2137.720703 0.78125)"/>
    <use xlink:href="#DejaVuSans-33" transform="translate(2201.34375 0.78125)"/>
    <use xlink:href="#DejaVuSans-38" transform="translate(2264.966797 0.78125)"/>
    <use xlink:href="#DejaVuSans-36" transform="translate(2328.589844 0.78125)"/>
    <use xlink:href="#DejaVuSans-2b" transform="translate(2411.695312 0.78125)"/>
    <use xlink:href="#DejaVuSans-30" transform="translate(2514.966797 0.78125)"/>
    <use xlink:href="#DejaVuSans-2e" transform="translate(2578.589844 0.78125)"/>
    <use xlink:href="#DejaVuSans-34" transform="translate(2610.376953 0.78125)"/>
    <use xlink:href="#DejaVuSans-39" transform="translate(2674 0.78125)"/>
    <use xlink:href="#DejaVuSans-34" transform="translate(2737.623047 0.78125)"/>
    <use xlink:href="#DejaVuSans-31" transform="translate(2801.246094 0.78125)"/>
    <use xlink:href="#DejaVuSans-33" transform="translate(2864.869141 0.78125)"/>
    <use xlink:href="#DejaVuSans-32" transform="translate(2928.492188 0.78125)"/>
    <use xlink:href="#DejaVuSans-2b" transform="translate(3011.597656 0.78125)"/>
    <use xlink:href="#DejaVuSans-30" transform="translate(3114.869141 0.78125)"/>
    <use xlink:href="#DejaVuSans-2e" transform="translate(3178.492188 0.78125)"/>
    <use xlink:href="#DejaVuSans-34" transform="translate(3210.279297 0.78125)"/>
    <use xlink:href="#DejaVuSans-32" transform="translate(3273.902344 0.78125)"/>
    <use xlink:href="#DejaVuSans-33" transform="translate(3337.525391 0.78125)"/>
    <use xlink:href="#DejaVuSans-30" transform="translate(3401.148438 0.78125)"/>
    <use xlink:href="#DejaVuSans-31" transform="translate(3464.771484 0.78125)"/>
    <use xlink:href="#DejaVuSans-38" transform="translate(3528.394531 0.78125)"/>
    <use xlink:href="#DejaVuSans-3d" transform="translate(3611.5 0.78125)"/>
    <use xlink:href="#DejaVuSans-32" transform="translate(3714.771484 0.78125)"/>
    <use xlink:href="#DejaVuSans-2e" transform="translate(3778.394531 0.78125)"/>
    <use xlink:href="#DejaVuSans-35" transform="translate(3810.181641 0.78125)"/>
    <use xlink:href="#DejaVuSans-31" transform="translate(3873.804688 0.78125)"/>
    <use xlink:href="#DejaVuSans-35" transform="translate(3937.427734 0.78125)"/>
    <use xlink:href="#DejaVuSans-34" transform="translate(4001.050781 0.78125)"/>
    <use xlink:href="#DejaVuSans-36" transform="translate(4064.673828 0.78125)"/>
    <use xlink:href="#DejaVuSans-32" transform="translate(4128.296875 0.78125)"/>
   </g>
  </g>
 </g>
</svg>
